<svg width="20" height="20" viewBox="0 0 20 20" fill="none" xmlns="http://www.w3.org/2000/svg">
<path d="M4.28571 20C1.91878 20 0 18.0812 0 15.7143V12.8571C0 12.0682 0.639594 11.4286 1.42857 11.4286C2.21755 11.4286 2.85714 12.0682 2.85714 12.8571V14.2857C2.85714 15.8637 4.13633 17.1429 5.71428 17.1429H7.14286C7.93183 17.1429 8.57143 17.7825 8.57143 18.5714C8.57143 19.3604 7.93184 20 7.14286 20H4.28571ZM18.5714 8.57143C17.7825 8.57143 17.1429 7.93184 17.1429 7.14286V5.71429C17.1429 4.13633 15.8637 2.85714 14.2857 2.85714H12.8571C12.0682 2.85714 11.4286 2.21755 11.4286 1.42857C11.4286 0.639594 12.0682 0 12.8571 0H15.7143C18.0812 0 20 1.91878 20 4.28571V7.14286C20 7.93184 19.3604 8.57143 18.5714 8.57143Z" fill="black"/>
</svg>
