<svg width="17" height="22" viewBox="0 0 17 22" fill="none" xmlns="http://www.w3.org/2000/svg">
<path d="M2.50893 21.7142C1.95647 21.7142 1.48354 21.5144 1.09012 21.1147C0.696708 20.7151 0.5 20.2346 0.5 19.6734V9.46932C0.5 8.90809 0.696708 8.42765 1.09012 8.02799C1.48354 7.62833 1.95647 7.4285 2.50893 7.4285H3.51339V5.38769C3.51339 3.97612 4.00307 2.77289 4.98242 1.77799C5.96177 0.783094 7.1462 0.285645 8.53571 0.285645C9.92522 0.285645 11.1097 0.783094 12.089 1.77799C13.0684 2.77289 13.558 3.97612 13.558 5.38769V7.4285H14.5625C15.115 7.4285 15.5879 7.62833 15.9813 8.02799C16.3747 8.42765 16.5714 8.90809 16.5714 9.46932V19.6734C16.5714 20.2346 16.3747 20.7151 15.9813 21.1147C15.5879 21.5144 15.115 21.7142 14.5625 21.7142H2.50893ZM2.50893 19.6734H14.5625V9.46932H2.50893V19.6734ZM8.53571 16.6122C9.08817 16.6122 9.5611 16.4123 9.95452 16.0127C10.3479 15.613 10.5446 15.1326 10.5446 14.5714C10.5446 14.0101 10.3479 13.5297 9.95452 13.13C9.5611 12.7304 9.08817 12.5305 8.53571 12.5305C7.98326 12.5305 7.51032 12.7304 7.11691 13.13C6.72349 13.5297 6.52679 14.0101 6.52679 14.5714C6.52679 15.1326 6.72349 15.613 7.11691 16.0127C7.51032 16.4123 7.98326 16.6122 8.53571 16.6122ZM5.52232 7.4285H11.5491V5.38769C11.5491 4.53735 11.2561 3.81456 10.6702 3.21932C10.0843 2.62408 9.37277 2.32646 8.53571 2.32646C7.69866 2.32646 6.98716 2.62408 6.40123 3.21932C5.81529 3.81456 5.52232 4.53735 5.52232 5.38769V7.4285Z" fill="#FFD196"/>
</svg>
